<svg xmlns="http://www.w3.org/2000/svg" xmlns:xlink="http://www.w3.org/1999/xlink" width="790" height="610.616" viewBox="0 0 790 610.616">
  <defs>
    <clipPath id="clip-path">
      <rect id="Rectangle_3357" data-name="Rectangle 3357" width="790" height="610.616" fill="none"/>
    </clipPath>
    <clipPath id="clip-path-3">
      <rect id="Rectangle_3334" data-name="Rectangle 3334" width="190.532" height="25.404" fill="none"/>
    </clipPath>
    <clipPath id="clip-path-5">
      <rect id="Rectangle_3337" data-name="Rectangle 3337" width="31.586" height="10.701" fill="none"/>
    </clipPath>
    <clipPath id="clip-path-6">
      <path id="Path_5893" data-name="Path 5893" d="M508.5,489.945a40965.509,40965.509,0,1,1,.084-.084" transform="translate(-508.5 -469)" fill="none"/>
    </clipPath>
    <clipPath id="clip-path-8">
      <rect id="Rectangle_3345" data-name="Rectangle 3345" width="42.904" height="39.998" fill="none"/>
    </clipPath>
    <clipPath id="clip-path-9">
      <rect id="Rectangle_3354" data-name="Rectangle 3354" width="22.043" height="36.046" fill="none"/>
    </clipPath>
    <clipPath id="clip-path-10">
      <rect id="Rectangle_3355" data-name="Rectangle 3355" width="98.982" height="49.314" fill="none"/>
    </clipPath>
  </defs>
  <g id="Illustratie_27" data-name="Illustratie 27" transform="translate(395 305.308)">
    <g id="Group_4692" data-name="Group 4692" transform="translate(-395 -305.308)" clip-path="url(#clip-path)">
      <g id="Group_4680" data-name="Group 4680" clip-path="url(#clip-path)">
        <g id="Group_4679" data-name="Group 4679" transform="translate(525.991 560.787)" opacity="0.1">
          <g id="Group_4678" data-name="Group 4678" clip-path="url(#clip-path-3)">
            <path id="Path_5854" data-name="Path 5854" d="M718.066,664c-52.616,0-95.266,5.659-95.266,12.668s42.65,12.668,95.266,12.668,95.266-5.659,95.266-12.668S770.767,664,718.066,664" transform="translate(-622.8 -664)" fill="#1d1d1b"/>
          </g>
        </g>
      </g>
      <rect id="Rectangle_3336" data-name="Rectangle 3336" width="576.242" height="311.929" transform="translate(43.664 154.892)" fill="#fff"/>
      <path id="Path_5855" data-name="Path 5855" d="M625.442,492.8H53.423V185.123H625.442Zm4.223-311.9H49.2V497.018H629.665Z" transform="translate(-7.648 -28.119)" fill="#d5eaf5"/>
      <g id="Group_4683" data-name="Group 4683" clip-path="url(#clip-path)">
        <path id="Path_5856" data-name="Path 5856" d="M629.665,177.169H49.2v-8.952A11.317,11.317,0,0,1,60.517,156.9H618.348a11.317,11.317,0,0,1,11.317,11.317Z" transform="translate(-7.648 -24.389)" fill="#d5eaf5"/>
        <path id="Path_5857" data-name="Path 5857" d="M150.8,215.355a8.615,8.615,0,0,1-2.111,11.993l-.422.253a9.375,9.375,0,1,1-4.561-1.182,6.165,6.165,0,0,0,0-12.246,21.621,21.621,0,0,0-15.541,6.588h0a21.7,21.7,0,0,0-3.632,4.9h0l-.845,1.774v.253a13.4,13.4,0,0,0-.591,1.689l-.169.591a11.516,11.516,0,0,0-.338,1.436c-.084.422-.084.676-.169,1.013s-.084.676-.169,1.1a21.533,21.533,0,0,0-.084,2.2h0a9.376,9.376,0,0,1-2.789,6.674,9.628,9.628,0,0,1-13.343,0,9.459,9.459,0,1,1,14.442-11.993,23.985,23.985,0,0,1,6.165-11.317,21.705,21.705,0,1,0,1.436,32.009l.253-.253a21.705,21.705,0,1,0,22.634-35.556Z" transform="translate(-14.149 -33.269)" fill="#d5eaf5"/>
        <path id="Path_5858" data-name="Path 5858" d="M549.321,255.371h-2.7a3.294,3.294,0,0,0,.676,2.111,2.28,2.28,0,0,0,1.858.76,4.9,4.9,0,0,0,1.52-.253l.169,1.182-1.689.253a3.716,3.716,0,0,1-2.787-1.013,4.223,4.223,0,0,1-1.1-2.956H544v-.929h1.267v-1.013H544v-.929h1.267a4.138,4.138,0,0,1,1.1-2.872,3.716,3.716,0,0,1,2.787-1.013l1.689.253-.169,1.182-1.6-.338a2.28,2.28,0,0,0-1.773.76,3.21,3.21,0,0,0-.676,2.027h2.7v.929h-2.7v1.013h2.7Zm7.348,3.885h-1.351v-8.868l-2.7,1.013v-1.182l3.8-1.436h.169Zm8.192,0h-1.351v-8.868l-2.7,1.013v-1.182l3.8-1.436h.169Zm10.388-4.476a6.081,6.081,0,0,1-.76,3.463,3.294,3.294,0,0,1-4.645.338l-.253-.253a5.744,5.744,0,0,1-.845-3.294v-1.858a5.912,5.912,0,0,1,.76-3.378,3.378,3.378,0,0,1,4.729-.253l.253.253a5.659,5.659,0,0,1,.845,3.294Zm-1.351-1.774a4.814,4.814,0,0,0-.507-2.449,1.816,1.816,0,0,0-2.956,0,4.729,4.729,0,0,0-.507,2.365v2.111a4.982,4.982,0,0,0,.507,2.534,1.816,1.816,0,0,0,2.956,0,4.729,4.729,0,0,0,.507-2.365Z" transform="translate(-84.56 -38.657)" fill="#8bb7d8"/>
        <path id="Path_5859" data-name="Path 5859" d="M504.754,232.1A20.354,20.354,0,1,1,484.4,252.454,20.354,20.354,0,0,1,504.754,232.1" transform="translate(-75.296 -36.078)" fill="#f1c40f"/>
        <path id="Path_5860" data-name="Path 5860" d="M502.45,260.522a2.111,2.111,0,1,0,2.111,2.111,2.111,2.111,0,0,0-2.111-2.111M496.2,243.8v2.111h2.111l3.8,7.939-1.436,2.534a3.124,3.124,0,0,0-.169,1.013,2.111,2.111,0,0,0,2.111,2.111h12.5V257.4H502.788a.253.253,0,0,1-.169-.169h0l.929-1.774h7.77a2.027,2.027,0,0,0,1.774-1.013l3.8-6.756a.591.591,0,0,0,.169-.507,1.013,1.013,0,0,0-1.013-1.013h-15.54l-.929-2.111Zm16.722,16.722a2.111,2.111,0,1,0,2.111,2.111,2.111,2.111,0,0,0-2.111-2.111" transform="translate(-77.13 -37.897)" fill="#fff"/>
        <path id="Path_5861" data-name="Path 5861" d="M374.321,285.071h-2.7a3.294,3.294,0,0,0,.676,2.111,2.28,2.28,0,0,0,1.858.76,4.9,4.9,0,0,0,1.52-.253l.169,1.182-1.689.253a3.716,3.716,0,0,1-2.787-1.013,4.223,4.223,0,0,1-1.1-2.956H369v-.845h1.267V283.3H369v-1.013h1.267a4.138,4.138,0,0,1,1.1-2.871,3.716,3.716,0,0,1,2.787-1.013l1.689.253-.169,1.182-1.6-.253a2.28,2.28,0,0,0-1.774.76,3.21,3.21,0,0,0-.676,2.027h2.7v.929h-2.7v1.013h2.7Zm7.348,3.885h-1.351v-8.868l-2.7,1.013v-1.182l3.8-1.436h.169Zm8.192,0h-1.351v-8.868l-2.7,1.013v-1.182l3.8-1.436h.169Zm10.726,0h-6.841v-.929l3.632-3.969a8.443,8.443,0,0,0,1.1-1.436,2.45,2.45,0,0,0,.338-1.182,1.858,1.858,0,0,0-.507-1.351,1.689,1.689,0,0,0-1.351-.507,2.027,2.027,0,0,0-1.52.591,2.111,2.111,0,0,0-.507,1.52h-1.351a3.04,3.04,0,0,1,.929-2.28,3.463,3.463,0,0,1,2.449-.929,3.294,3.294,0,0,1,2.28.76,2.618,2.618,0,0,1,.845,2.027q0,1.52-1.943,3.632l-2.787,3.04h5.236Z" transform="translate(-57.358 -43.274)" fill="#8bb7d8"/>
        <path id="Path_5862" data-name="Path 5862" d="M437.954,261.8A20.354,20.354,0,1,1,417.6,282.154,20.354,20.354,0,0,1,437.954,261.8" transform="translate(-64.912 -40.695)" fill="#d5eaf5"/>
        <path id="Path_5863" data-name="Path 5863" d="M447.153,277.113a1.6,1.6,0,0,0-1.436-1.014H434.232a1.436,1.436,0,0,0-1.436,1.013l-2.2,6.25v8.361a1.1,1.1,0,0,0,1.013,1.013h1.013a1.013,1.013,0,0,0,1.013-1.013v-1.013h12.5v1.013a1.1,1.1,0,0,0,1.013,1.013h1.013a1.1,1.1,0,0,0,1.013-1.013v-8.361Zm-12.922,10.473a1.6,1.6,0,1,1,1.6-1.6,1.6,1.6,0,0,1-1.6,1.6m11.486,0a1.6,1.6,0,1,1,1.6-1.6A1.6,1.6,0,0,1,445.718,287.586Zm-13.091-5.321,1.6-4.73h11.486l1.6,4.73Z" transform="translate(-66.933 -42.917)" fill="#fff"/>
        <path id="Path_5864" data-name="Path 5864" d="M347.121,349.371h-2.7a3.294,3.294,0,0,0,.676,2.111,2.28,2.28,0,0,0,1.858.76,4.9,4.9,0,0,0,1.52-.253l.169,1.182-1.689.253a3.716,3.716,0,0,1-2.787-1.013,4.223,4.223,0,0,1-1.1-2.956H341.8v-.929h1.267v-1.013H341.8v-.929h1.267a4.138,4.138,0,0,1,1.1-2.871,3.716,3.716,0,0,1,2.787-1.013l1.689.253-.169,1.182-1.6-.253a2.28,2.28,0,0,0-1.774.76,3.209,3.209,0,0,0-.676,2.027h2.7v.929h-2.7v1.013h2.7Zm7.348,3.885h-1.351v-8.783l-2.7,1.013V344.3l3.8-1.436h.169Zm10.726,0h-6.841v-.929l3.632-3.969a8.532,8.532,0,0,0,1.1-1.436,2.45,2.45,0,0,0,.338-1.182,1.858,1.858,0,0,0-.507-1.351,1.689,1.689,0,0,0-1.351-.507,2.027,2.027,0,0,0-1.52.591,2.111,2.111,0,0,0-.507,1.52h-1.351a3.04,3.04,0,0,1,.929-2.28,3.463,3.463,0,0,1,2.449-.929,3.294,3.294,0,0,1,2.28.76,2.618,2.618,0,0,1,.845,2.027q0,1.52-1.943,3.632l-2.787,3.04h5.236Zm3.294-5.827H369.5a2.2,2.2,0,0,0,1.436-.507,1.773,1.773,0,0,0-1.351-3.125,1.858,1.858,0,0,0-1.351.507,1.689,1.689,0,0,0-.507,1.267h-1.267a2.618,2.618,0,0,1,.929-2.027,3.643,3.643,0,0,1,4.561-.084,2.787,2.787,0,0,1,.845,2.2,2.281,2.281,0,0,1-.422,1.351,2.619,2.619,0,0,1-1.182.929,2.551,2.551,0,0,1,1.858,2.449,2.872,2.872,0,0,1-.929,2.2,3.463,3.463,0,0,1-2.365.845,3.547,3.547,0,0,1-2.365-.76,2.618,2.618,0,0,1-.929-2.111h1.351a1.689,1.689,0,0,0,.507,1.351,2.287,2.287,0,0,0,2.872,0,1.943,1.943,0,0,0,.507-1.436,1.774,1.774,0,0,0-.591-1.436,2.449,2.449,0,0,0-1.6-.507h-1.013Z" transform="translate(-53.13 -53.269)" fill="#8bb7d8"/>
        <path id="Path_5865" data-name="Path 5865" d="M410.754,326.1A20.354,20.354,0,1,1,390.4,346.454,20.354,20.354,0,0,1,410.754,326.1" transform="translate(-60.684 -50.689)" fill="#d5eaf5"/>
        <path id="Path_5866" data-name="Path 5866" d="M420.934,348.761a2.111,2.111,0,0,1,2.111-2.111v-4.138a2.111,2.111,0,0,0-2.111-2.111H404.211a2.111,2.111,0,0,0-2.111,2.111v4.138a2.111,2.111,0,1,1,0,4.138v4.138a2.111,2.111,0,0,0,2.111,2.111h16.722a2.111,2.111,0,0,0,2.111-2.111v-4.138a2.111,2.111,0,0,1-2.111-2.111m-4.561,4.983-3.8-2.365-3.8,2.365,1.182-4.307-3.463-2.787,4.392-.169,1.689-4.138,1.6,4.054,4.476.338-3.463,2.787Z" transform="translate(-62.503 -52.912)" fill="#fff"/>
        <path id="Path_5867" data-name="Path 5867" d="M364.405,442.171h-2.7a3.294,3.294,0,0,0,.676,2.111,2.28,2.28,0,0,0,1.858.76,4.9,4.9,0,0,0,1.52-.253l.169,1.182-1.689.253a3.716,3.716,0,0,1-2.787-1.014,4.223,4.223,0,0,1-1.1-2.956H359v-.929h1.267v-1.013H359v-.929h1.267a4.138,4.138,0,0,1,1.1-2.871,3.716,3.716,0,0,1,2.787-1.014l1.689.253-.169,1.182-1.6-.253a2.28,2.28,0,0,0-1.774.76,3.209,3.209,0,0,0-.676,2.027h2.7v.929h-2.7v1.013h2.7Zm9.8,3.885h-6.756v-.929l3.632-3.969a8.448,8.448,0,0,0,1.1-1.436,2.45,2.45,0,0,0,.338-1.182,1.858,1.858,0,0,0-.507-1.351,1.689,1.689,0,0,0-1.351-.507,2.027,2.027,0,0,0-1.52.591,2.112,2.112,0,0,0-.507,1.52h-1.351a3.041,3.041,0,0,1,.929-2.28,3.463,3.463,0,0,1,2.449-.845,3.294,3.294,0,0,1,2.28.76,2.618,2.618,0,0,1,.845,2.027q0,1.52-1.942,3.632l-2.787,3.04h5.236Zm8.192,0h-6.841v-.929l3.632-3.969a8.534,8.534,0,0,0,1.1-1.436,2.45,2.45,0,0,0,.338-1.182,1.858,1.858,0,0,0-.507-1.351,1.689,1.689,0,0,0-1.351-.507,2.027,2.027,0,0,0-1.52.591,2.111,2.111,0,0,0-.507,1.52h-1.351a3.04,3.04,0,0,1,.929-2.28,3.463,3.463,0,0,1,2.449-.845,3.294,3.294,0,0,1,2.28.76,2.618,2.618,0,0,1,.845,2.027q0,1.52-1.942,3.632l-2.787,3.04h5.236Zm2.027-5.236.507-5.152h5.321v1.182h-4.223l-.338,2.872a3.378,3.378,0,0,1,1.774-.422,2.871,2.871,0,0,1,2.28.929,3.632,3.632,0,0,1,.845,2.534,3.547,3.547,0,0,1-.845,2.534,3.125,3.125,0,0,1-2.449.929,3.294,3.294,0,0,1-2.28-.76A3.04,3.04,0,0,1,384,443.353h1.267a2.112,2.112,0,0,0,.676,1.351,1.943,1.943,0,0,0,1.351.422,1.773,1.773,0,0,0,1.436-.591,2.618,2.618,0,0,0,.507-1.774,2.365,2.365,0,0,0-.591-1.689,1.942,1.942,0,0,0-1.52-.676,2.2,2.2,0,0,0-1.351.338l-.338.253Z" transform="translate(-55.803 -67.693)" fill="#8bb7d8"/>
        <path id="Path_5868" data-name="Path 5868" d="M428.054,418.9A20.354,20.354,0,1,1,407.7,439.254,20.354,20.354,0,0,1,428.054,418.9" transform="translate(-63.373 -65.114)" fill="#d5eaf5"/>
        <path id="Path_5869" data-name="Path 5869" d="M430.261,441.577a4.138,4.138,0,1,0-2.98-1.181,4.138,4.138,0,0,0,2.98,1.181m0,2.111c-2.787,0-8.361,1.351-8.361,4.138v2.111h16.722v-2.111c0-2.787-5.574-4.138-8.361-4.138" transform="translate(-65.581 -67.353)" fill="#fff"/>
        <g id="Group_4682" data-name="Group 4682" transform="translate(480.3 410.624)" opacity="0.5" style="isolation: isolate">
          <g id="Group_4681" data-name="Group 4681" clip-path="url(#clip-path-5)">
            <path id="Path_5870" data-name="Path 5870" d="M574.121,492.971h-2.7a3.294,3.294,0,0,0,.676,2.111,2.281,2.281,0,0,0,1.858.76,4.9,4.9,0,0,0,1.52-.253l.169,1.182-1.689.253a3.716,3.716,0,0,1-2.787-1.013,4.223,4.223,0,0,1-1.1-2.956H568.8v-.929h1.267v-1.013H568.8v-.929h1.267a4.138,4.138,0,0,1,1.1-2.872,3.716,3.716,0,0,1,2.787-1.013l1.689.253-.169,1.182-1.6-.253a2.28,2.28,0,0,0-1.774.76,3.209,3.209,0,0,0-.676,2.027h2.7v.929h-2.7v1.013h2.7Zm9.8,3.885h-6.841v-.929l3.632-3.969a8.442,8.442,0,0,0,1.1-1.436,2.449,2.449,0,0,0,.338-1.182,1.858,1.858,0,0,0-.507-1.351,1.689,1.689,0,0,0-1.351-.507,2.027,2.027,0,0,0-1.52.591,2.111,2.111,0,0,0-.507,1.52h-1.351a3.04,3.04,0,0,1,.929-2.28,3.463,3.463,0,0,1,2.449-.929,3.294,3.294,0,0,1,2.28.76,2.618,2.618,0,0,1,.845,2.027q0,1.52-1.943,3.632l-2.787,3.04h5.236Zm3.294-5.827h1.013a2.2,2.2,0,0,0,1.436-.507,1.773,1.773,0,0,0-1.351-3.125,1.858,1.858,0,0,0-1.351.507,1.69,1.69,0,0,0-.507,1.267H585.1a2.619,2.619,0,0,1,.929-2.027,3.643,3.643,0,0,1,4.561-.084,2.787,2.787,0,0,1,.845,2.2,2.28,2.28,0,0,1-.422,1.351,2.618,2.618,0,0,1-1.182.929,2.551,2.551,0,0,1,1.858,2.449,2.872,2.872,0,0,1-.929,2.2,3.463,3.463,0,0,1-2.365.845,3.547,3.547,0,0,1-2.365-.76,2.618,2.618,0,0,1-.929-2.111h1.351a1.689,1.689,0,0,0,.507,1.351,2.287,2.287,0,0,0,2.872,0,1.943,1.943,0,0,0,.507-1.436,1.773,1.773,0,0,0-.591-1.436,2.449,2.449,0,0,0-1.6-.507h-1.013Zm6.925.591.507-5.152h5.321v1.182h-4.223l-.338,2.871a3.378,3.378,0,0,1,1.773-.422,2.871,2.871,0,0,1,2.28.929,3.716,3.716,0,0,1,.845,2.534,3.547,3.547,0,0,1-.844,2.534,3.125,3.125,0,0,1-2.449.929,3.294,3.294,0,0,1-2.28-.76,3.04,3.04,0,0,1-1.013-2.111h1.267a2.112,2.112,0,0,0,.676,1.351,2.027,2.027,0,0,0,1.351.422,1.773,1.773,0,0,0,1.436-.591,2.618,2.618,0,0,0,.507-1.774,2.365,2.365,0,0,0-.591-1.689,1.942,1.942,0,0,0-1.52-.676,2.2,2.2,0,0,0-1.351.338l-.338.253Z" transform="translate(-568.716 -486.214)" fill="#8bb7d8"/>
          </g>
        </g>
        <path id="Path_5871" data-name="Path 5871" d="M529.361,469A20.861,20.861,0,1,1,508.5,489.861,20.861,20.861,0,0,1,529.361,469" transform="translate(-79.042 -72.902)" fill="#d5eaf5"/>
      </g>
      <g id="Group_4684" data-name="Group 4684" transform="translate(429.458 396.098)" clip-path="url(#clip-path-6)">
        <path id="Path_5872" data-name="Path 5872" d="M508.5,517.6l41.806.676v.084H508.5Z" transform="translate(-508.5 -476.554)" fill="#d5eaf5"/>
        <path id="Path_5873" data-name="Path 5873" d="M508.5,515.6l41.806.676v1.689l-41.806-.676Z" transform="translate(-508.5 -476.244)" fill="#d5eaf5"/>
        <path id="Path_5874" data-name="Path 5874" d="M508.5,513.6l41.806.676v1.689l-41.806-.676Z" transform="translate(-508.5 -475.933)" fill="#d5eaf5"/>
        <path id="Path_5875" data-name="Path 5875" d="M508.5,511.6l41.806.676v1.689l-41.806-.676Z" transform="translate(-508.5 -475.622)" fill="#d5eaf5"/>
        <path id="Path_5876" data-name="Path 5876" d="M508.5,509.6l41.806.676v1.689l-41.806-.676Z" transform="translate(-508.5 -475.311)" fill="#d5eaf5"/>
        <path id="Path_5877" data-name="Path 5877" d="M508.5,507.6l41.806.676v1.689l-41.806-.676Z" transform="translate(-508.5 -475)" fill="#d5eaf5"/>
        <path id="Path_5878" data-name="Path 5878" d="M508.5,505.6l41.806.676v1.689l-41.806-.676Z" transform="translate(-508.5 -474.689)" fill="#d5eaf5"/>
        <path id="Path_5879" data-name="Path 5879" d="M508.5,503.6l41.806.676v1.689l-41.806-.676Z" transform="translate(-508.5 -474.378)" fill="#d5eaf5"/>
        <path id="Path_5880" data-name="Path 5880" d="M508.5,501.6l41.806.676v1.689l-41.806-.676Z" transform="translate(-508.5 -474.067)" fill="#d5eaf5"/>
        <path id="Path_5881" data-name="Path 5881" d="M508.5,499.6l41.806.676v1.689l-41.806-.676Z" transform="translate(-508.5 -473.757)" fill="#d5eaf5"/>
        <path id="Path_5882" data-name="Path 5882" d="M508.5,497.6l41.806.676v1.689l-41.806-.676Z" transform="translate(-508.5 -473.446)" fill="#d5eaf5"/>
        <path id="Path_5883" data-name="Path 5883" d="M508.5,495.6l41.806.676v1.689l-41.806-.676Z" transform="translate(-508.5 -473.135)" fill="#d5eaf5"/>
        <path id="Path_5884" data-name="Path 5884" d="M508.5,493.6l41.806.676v1.689l-41.806-.676Z" transform="translate(-508.5 -472.824)" fill="#d5eaf5"/>
        <path id="Path_5885" data-name="Path 5885" d="M508.5,491.6l41.806.676v1.689l-41.806-.676Z" transform="translate(-508.5 -472.513)" fill="#d5eaf5"/>
        <path id="Path_5886" data-name="Path 5886" d="M508.5,487.8l41.806.676v3.209l-41.806-.676Z" transform="translate(-508.5 -471.922)" fill="#d5eaf5"/>
        <path id="Path_5887" data-name="Path 5887" d="M508.5,484l41.806.676v3.209l-41.806-.676Z" transform="translate(-508.5 -471.332)" fill="#d5eaf5"/>
        <path id="Path_5888" data-name="Path 5888" d="M508.5,480.2l41.806.676v3.209l-41.806-.676Z" transform="translate(-508.5 -470.741)" fill="#d5eaf5"/>
        <path id="Path_5889" data-name="Path 5889" d="M508.5,476.4l41.806.676v3.209l-41.806-.676Z" transform="translate(-508.5 -470.15)" fill="#d5eaf5"/>
        <path id="Path_5890" data-name="Path 5890" d="M508.5,472.5l41.806.676v3.294l-41.806-.676Z" transform="translate(-508.5 -469.544)" fill="#d5eaf5"/>
        <path id="Path_5891" data-name="Path 5891" d="M524.547,469l25.759.422v3.209l-41.806-.676V469Z" transform="translate(-508.5 -469)" fill="#d5eaf5"/>
        <path id="Path_5892" data-name="Path 5892" d="M553.259,469.422,527.5,469h25.759Z" transform="translate(-511.453 -469)" fill="#d5eaf5"/>
      </g>
      <g id="Group_4691" data-name="Group 4691" clip-path="url(#clip-path)">
        <path id="Path_5894" data-name="Path 5894" d="M539.649,483.9H523.011a2.111,2.111,0,0,0-2.111,2.111v12.5a2.111,2.111,0,0,0,2.111,2.111h16.722a2.111,2.111,0,0,0,2.111-2.111v-12.5a2.111,2.111,0,0,0-2.111-2.111m0,14.611H523.011v-6.25h16.722Zm0-10.473H523.011v-2.111h16.722Z" transform="translate(-80.97 -75.218)" fill="#fff"/>
        <path id="Path_5895" data-name="Path 5895" d="M640.859,416.7h-2.872a3.378,3.378,0,0,0,.676,2.2,2.365,2.365,0,0,0,1.858.76,4.984,4.984,0,0,0,1.6-.253l.169,1.182-1.774.253a3.885,3.885,0,0,1-2.871-1.1,4.392,4.392,0,0,1-1.1-3.04H635.2v-.845h1.351v-1.013H635.2v-.929h1.351a4.307,4.307,0,0,1,1.1-2.956,3.8,3.8,0,0,1,2.872-1.1l1.774.253-.169,1.182a5.237,5.237,0,0,0-1.6-.253,2.365,2.365,0,0,0-1.858.76,3.294,3.294,0,0,0-.676,2.111h2.787v.929H637.9v1.013h2.871Zm8.361-.76a3.377,3.377,0,0,1-1.013.845,2.787,2.787,0,0,1-1.267.338,2.872,2.872,0,0,1-1.6-.422,2.956,2.956,0,0,1-1.1-1.267,4.391,4.391,0,0,1-.338-1.858,4.476,4.476,0,0,1,.422-1.942,3.041,3.041,0,0,1,1.182-1.351,3.293,3.293,0,0,1,1.773-.422,2.956,2.956,0,0,1,2.534,1.182,5.152,5.152,0,0,1,.929,3.209v.422a6.789,6.789,0,0,1-1.267,4.561,4.814,4.814,0,0,1-3.716,1.436H645.5v-1.182h.253a3.209,3.209,0,0,0,3.547-3.547m-2.111,0a2.111,2.111,0,0,0,1.267-.422,2.45,2.45,0,0,0,.845-1.013V414a3.717,3.717,0,0,0-.591-2.2,1.774,1.774,0,0,0-2.449-.591l-.507.422a2.872,2.872,0,0,0-.507,1.774,2.956,2.956,0,0,0,.507,1.774,1.689,1.689,0,0,0,1.436.676m9.8,4.73h-1.351v-8.952l-2.787,1.013V411.38l3.885-1.436h.253Zm10.726-4.561a6.25,6.25,0,0,1-.845,3.547,3.378,3.378,0,0,1-4.814.338l-.338-.338a5.912,5.912,0,0,1-.844-3.378v-1.858a6.081,6.081,0,0,1,.845-3.547,3.463,3.463,0,0,1,4.9-.253l.253.253a5.828,5.828,0,0,1,.845,3.463Zm-1.351-1.858a4.983,4.983,0,0,0-.507-2.534,1.9,1.9,0,0,0-3.04,0,4.9,4.9,0,0,0-.507,2.449v2.2a5.151,5.151,0,0,0,.507,2.534,1.689,1.689,0,0,0,1.52.845,1.6,1.6,0,0,0,1.52-.76,4.9,4.9,0,0,0,.507-2.449Z" transform="translate(-98.736 -63.675)" fill="#8bb7d8"/>
        <path id="Path_5896" data-name="Path 5896" d="M648.254,350.9A20.354,20.354,0,1,1,627.9,371.254,20.354,20.354,0,0,1,648.254,350.9" transform="translate(-97.602 -54.544)" fill="#d5eaf5"/>
        <path id="Path_5897" data-name="Path 5897" d="M648.061,380.42v-6.334H652.2v6.334h5.236v-8.361h3.125L650.088,362.6,639.7,372.059h3.125v8.361Z" transform="translate(-99.436 -56.363)" fill="#fff"/>
        <path id="Path_5898" data-name="Path 5898" d="M555.765,323.18a45.1,45.1,0,0,0-22.465-6V292.1a70.267,70.267,0,0,1,34.965,9.375Z" transform="translate(-82.897 -45.404)" fill="#d5eaf5"/>
        <path id="Path_5899" data-name="Path 5899" d="M504.3,323.18l-12.5-21.705a70.267,70.267,0,0,1,34.965-9.375v25.083a45.1,45.1,0,0,0-22.461,5.994" transform="translate(-76.446 -45.404)" fill="#f1c40f"/>
        <path id="Path_5900" data-name="Path 5900" d="M576.353,341.358A45.691,45.691,0,0,0,559.8,324.805L572.384,303.1a70.774,70.774,0,0,1,25.59,25.675Z" transform="translate(-87.016 -47.114)" fill="#d5eaf5"/>
        <path id="Path_5901" data-name="Path 5901" d="M601.105,410.049,579.4,397.465a44.593,44.593,0,0,0,6-22.465H610.48a69.678,69.678,0,0,1-9.375,35.049" transform="translate(-90.063 -58.291)" fill="#d5eaf5"/>
        <path id="Path_5902" data-name="Path 5902" d="M483.105,341.374,461.4,328.79a70.774,70.774,0,0,1,25.59-25.59l12.584,21.705a45.691,45.691,0,0,0-16.553,16.553" transform="translate(-71.721 -47.13)" fill="#d5eaf5"/>
        <path id="Path_5903" data-name="Path 5903" d="M610.48,368.565H585.4A45.094,45.094,0,0,0,579.4,346.1l21.7-12.5a70.268,70.268,0,0,1,9.375,34.965" transform="translate(-90.063 -51.855)" fill="#d5eaf5"/>
        <path id="Path_5904" data-name="Path 5904" d="M475.383,368.565H450.3a70.267,70.267,0,0,1,9.375-34.965l21.705,12.5a45.1,45.1,0,0,0-6,22.465" transform="translate(-69.995 -51.855)" fill="#8bb7d8"/>
        <path id="Path_5905" data-name="Path 5905" d="M572.384,439.758,559.8,418.053A45.691,45.691,0,0,0,576.353,401.5l21.621,12.668a70.775,70.775,0,0,1-25.59,25.59" transform="translate(-87.016 -62.41)" fill="#d5eaf5"/>
        <path id="Path_5906" data-name="Path 5906" d="M526.68,452.18a69.677,69.677,0,0,1-34.88-9.375L504.384,421.1a44.593,44.593,0,0,0,22.3,6h.084V452.18H526.6" transform="translate(-76.446 -65.456)" fill="#e9f4fa"/>
        <path id="Path_5907" data-name="Path 5907" d="M533.2,452.18V427.1a45.1,45.1,0,0,0,22.461-5.994l12.5,21.7A70.267,70.267,0,0,1,533.2,452.18" transform="translate(-82.881 -65.457)" fill="#e9f4fa"/>
        <path id="Path_5908" data-name="Path 5908" d="M459.675,409.965A70.267,70.267,0,0,1,450.3,375h25.083a45.1,45.1,0,0,0,5.994,22.461Z" transform="translate(-69.995 -58.291)" fill="#8bb7d8"/>
        <path id="Path_5909" data-name="Path 5909" d="M487.09,439.774a70.775,70.775,0,0,1-25.59-25.59L483.205,401.6a45.691,45.691,0,0,0,16.553,16.553Z" transform="translate(-71.736 -62.425)" fill="#8bb7d8"/>
        <rect id="Rectangle_3339" data-name="Rectangle 3339" width="18.58" height="45.708" transform="translate(81.458 382.142) rotate(-1.2)" fill="#8bb7d8"/>
        <rect id="Rectangle_3340" data-name="Rectangle 3340" width="18.58" height="66.94" transform="translate(110.229 360.931) rotate(-1.2)" fill="#f1c40f"/>
        <rect id="Rectangle_3341" data-name="Rectangle 3341" width="18.58" height="89.641" transform="translate(139.137 338.199) rotate(-1.2)" fill="#8bb7d8"/>
        <rect id="Rectangle_3342" data-name="Rectangle 3342" width="18.58" height="112.343" transform="translate(168.048 315.55) rotate(-1.2)" fill="#d5eaf5"/>
        <rect id="Rectangle_3343" data-name="Rectangle 3343" width="18.58" height="133.871" transform="translate(196.812 294.002) rotate(-1.2)" fill="#f1c40f"/>
        <path id="Path_5910" data-name="Path 5910" d="M98.327,426.923a2.111,2.111,0,0,1-1.6-3.378l23.9-29.813a2.111,2.111,0,0,1,1.6-.76l19.594-.422,12.922-32.6a2.111,2.111,0,0,1,1.943-1.351l17.06-.338,41.806-44.424a2.111,2.111,0,1,1,3.04,2.872l-42.4,45.1a2.111,2.111,0,0,1-1.52.676l-16.553.338-12.922,32.6a2.111,2.111,0,0,1-1.942,1.351l-20.016.422-23.225,28.968a2.111,2.111,0,0,1-1.6.76" transform="translate(-14.969 -48.645)" fill="#d5eaf5"/>
        <path id="Path_5911" data-name="Path 5911" d="M239.64,326.321l3.04-21.621L224.1,314.835l10.557,1.182Z" transform="translate(-34.834 -47.363)" fill="#d5eaf5"/>
        <path id="Path_5912" data-name="Path 5912" d="M239.527,326.835a.676.676,0,0,1-.591-.422l-4.814-9.966-10.135-1.1a.737.737,0,0,1-.253-1.351l18.58-10.219a.65.65,0,0,1,1.013.676L240.2,326.075a.676.676,0,0,1-.591.591h-.084m-13.26-12.584,8.361.845a.676.676,0,0,1,.591.422l3.969,8.277,2.534-17.989Z" transform="translate(-34.722 -47.202)" fill="#d5eaf5"/>
        <path id="Path_5913" data-name="Path 5913" d="M700.027,225.6s.591-7.01,7.77-6.5c3.209.169,3.04,2.7,5.743,1.858s.929.591,2.787,2.027,8.023-2.618,9.966-.422,1.436,3.632,1.436,6.165,4.645-1.351,6.334,2.2,2.787,13.344-10.726,19.087c-9.121,3.885-23.225-10.473-25-14.526s-4.054-12.5,1.774-9.8" transform="translate(-108.245 -34.052)" fill="#f1c40f"/>
        <path id="Path_5914" data-name="Path 5914" d="M700.7,225.518a7.855,7.855,0,0,1,2.7-4.9,6.926,6.926,0,0,1,5.236-1.267,4.392,4.392,0,0,1,2.365,1.1,4.729,4.729,0,0,0,1.351.845,2.786,2.786,0,0,0,1.689,0l.676-.169h.76l.169.676a3.041,3.041,0,0,0,.929,1.351,2.533,2.533,0,0,0,1.689.422,13.261,13.261,0,0,0,2.956-.591l2.787-.676a3.41,3.41,0,0,1,2.449.169l.253.169.253.253.422.507a4.137,4.137,0,0,1,.591,1.182,8.444,8.444,0,0,1,.169,2.787v.76a3.3,3.3,0,0,0,.084.76.929.929,0,0,0,.591.676h.845a16.554,16.554,0,0,1,2.872-.338,2.534,2.534,0,0,1,2.28,1.436,2.483,2.483,0,0,0-2.2-1.689,16.382,16.382,0,0,0-2.872.169c-.507,0-.844,0-.929-.422a3.042,3.042,0,0,1,0-.676v-.676a8.951,8.951,0,0,0-.084-2.956,4.9,4.9,0,0,0-.591-1.436l-.422-.591-.253-.253-.338-.253a2.45,2.45,0,0,0-.76-.422H724.01l-2.871.676a12.669,12.669,0,0,1-2.7.507,1.689,1.689,0,0,1-1.1-.253,2.11,2.11,0,0,1-.76-.929l-.169-.676a1.014,1.014,0,0,0-.338-.507.929.929,0,0,0-.591-.169,6.334,6.334,0,0,0-1.52.338,1.943,1.943,0,0,1-1.182,0,4.054,4.054,0,0,1-1.1-.676,4.9,4.9,0,0,0-2.787-1.182,7.517,7.517,0,0,0-5.574,1.689,7.854,7.854,0,0,0-2.365,5.236" transform="translate(-108.918 -33.972)" fill="#f8e287"/>
        <path id="Path_5915" data-name="Path 5915" d="M725.5,374.289c.338-.591,1.858-1.1,3.125-1.436-.338.253-.76.507-.169.76a4.561,4.561,0,0,0,3.294-1.013,3.885,3.885,0,0,1,.253,1.52c0,.591-7.01,1.1-6.5.169" transform="translate(-112.768 -57.918)" fill="#30193b"/>
        <path id="Path_5916" data-name="Path 5916" d="M765.726,379.61c.169-.676-2.365-2.365-3.294-2.618s.76.676.338.845a2.112,2.112,0,0,1-2.28-.591,6,6,0,0,0,0,1.6c.084.591,4.814,2.2,5.236.676" transform="translate(-118.203 -58.593)" fill="#30193b"/>
        <path id="Path_5917" data-name="Path 5917" d="M726.9,355.582c.676-.422,2.7-.845,2.787-1.013-1.182-3.378-9.206-36.569-9.881-44-1.267-13.006.169-46.2,1.436-49.322,3.378-1.436,11.739-.253,17.229-.845.084.253,6.672,5.236,10.473,11.486,5.828,9.712,5.49,75.166,6.081,86.567l1.267.507c.338.169,1.351,1.013,1.013,1.267s-2.534-.338-3.04-.929v-.422c0-.084-19.847-72.548-19.847-72.548L730.7,310.06s.169,45.184.169,45.268a11,11,0,0,1-3.209,1.013c-.845,0-1.013-.422-.676-.76" transform="translate(-111.812 -40.477)" fill="#ff97a6"/>
        <path id="Path_5918" data-name="Path 5918" d="M737.153,259.363s6.25,2.365,12.246,12.246c2.111,3.463,5.067,25,5.405,30.235h-4.9l-2.449-18.327.338,18.327s-21.114,2.365-30.742-1.267c0,0-3.378-19.087,3.716-44.677Z" transform="translate(-111.335 -39.777)" fill="#3b3b3b"/>
        <path id="Path_5919" data-name="Path 5919" d="M733.79,302.5h-1.1c-5.574-.084-11.57-.507-15.54-2.027,0,0-3.378-19.087,3.716-44.677l6.841,1.436h1.858s-5.236,9.375-3.209,19.172a224.318,224.318,0,0,0,7.517,25.928" transform="translate(-111.35 -39.762)" fill="#1d1d1b"/>
        <path id="Path_5920" data-name="Path 5920" d="M719.4,234.36c-2.787.676-8.868,4.73-9.459,5.152-2.618,1.689-4.223,1.689-3.378,6.081a19.874,19.874,0,0,0,3.209,6.841,114.7,114.7,0,0,0,8.952,10.979,23.31,23.31,0,0,0,10.726-2.2c5.828-2.956,6.334-5.321,6.334-5.321s-1.436-6.925-8.277-18.242c-.422-.76-4.645-4.223-8.023-3.378" transform="translate(-109.793 -36.396)" fill="#aacbe8"/>
        <path id="Path_5921" data-name="Path 5921" d="M697.223,265.49s-8.615,9.8-12.753,11.148a9.542,9.542,0,0,1-2.365.507c-2.449,0-5.912-2.365-2.027-6.672A46.028,46.028,0,0,1,694.521,260s-1.1,2.534,2.7,5.574" transform="translate(-105.441 -40.415)" fill="#9fc0e2"/>
        <path id="Path_5922" data-name="Path 5922" d="M705.7,242.193c2.534-2.618,5.743,3.547-5.828,20.438-1.267,1.858-5.827-.338-4.138-3.125,4.307-7.094,7.263-14.611,9.966-17.4" transform="translate(-108.088 -37.557)" fill="#9fc0e2"/>
        <rect id="Rectangle_3344" data-name="Rectangle 3344" width="4.223" height="13.792" transform="translate(566.751 229.428) rotate(-60.5)" fill="#1d1d1b"/>
        <path id="Path_5923" data-name="Path 5923" d="M705.243,291.764l3.547-6.25a.76.76,0,0,0-.338-1.1l-20.607-11.655a1.773,1.773,0,0,0-2.365.676L682.862,278a1.774,1.774,0,0,0,.676,2.365l20.607,11.655a.76.76,0,0,0,1.1-.338" transform="translate(-106.113 -42.366)" fill="#1d1d1b"/>
        <path id="Path_5924" data-name="Path 5924" d="M701.258,290.513l4.307-7.6-17.82-10.05a1.774,1.774,0,0,0-2.365.676l-2.618,4.561a1.774,1.774,0,0,0,.676,2.365Z" transform="translate(-106.097 -42.382)" fill="#3b3b3b"/>
        <path id="Path_5925" data-name="Path 5925" d="M623.441,248.31v-.169c1.52-9.8,11.739-14.864,22.887-11.233s18.918,14.442,17.482,24.154v.169a13.936,13.936,0,0,1-7.854,10.641,19.919,19.919,0,0,1-15.033.591c-11.064-3.547-18.918-14.442-17.482-24.154m-4.476-1.436c-1.689,11.908,7.854,25.168,21.367,29.56s26.1-1.774,27.955-13.766V262.5c1.689-11.908-7.854-25.168-21.367-29.56s-26.1,1.774-27.955,13.766v.169" transform="translate(-96.183 -35.988)" fill="#1d1d1b"/>
        <path id="Path_5926" data-name="Path 5926" d="M625.041,246.11v-.169c1.52-9.8,11.739-14.864,22.888-11.233s18.918,14.442,17.482,24.154v.169a13.935,13.935,0,0,1-7.854,10.641,19.919,19.919,0,0,1-15.033.591c-11.064-3.547-18.918-14.442-17.482-24.154m-4.476-1.436c-1.689,11.908,7.854,25.168,21.367,29.56s26.1-1.774,27.955-13.766V260.3c1.689-11.908-7.854-25.168-21.367-29.56s-26.1,1.774-27.955,13.766v.169" transform="translate(-96.431 -35.646)" fill="#3b3b3b"/>
        <g id="Group_4686" data-name="Group 4686" transform="translate(527.342 196.867)" opacity="0.69">
          <g id="Group_4685" data-name="Group 4685" clip-path="url(#clip-path-8)">
            <path id="Path_5927" data-name="Path 5927" d="M643.075,271.857c11.739,3.8,22.55-1.52,24.154-11.908s-6.672-21.874-18.411-25.675-22.55,1.52-24.154,11.908,6.672,21.874,18.411,25.675" transform="translate(-624.41 -233.092)" fill="#d5eaf5"/>
          </g>
        </g>
        <path id="Path_5928" data-name="Path 5928" d="M681.44,277.4h-.169c-.507-.169-2.956-1.1-2.872-2.111s1.6-2.449,2.111-2.2-.169,1.1-.169,1.1-.084-.169.422-.084,0,1.013,0,1.52,1.52,1.6.76,1.689" transform="translate(-105.451 -42.446)" fill="#ff97a6"/>
        <path id="Path_5929" data-name="Path 5929" d="M701.208,284.033l-.845-.338c-.422-.169-.929-.422-.676-.507a2.449,2.449,0,0,1,1.1,0c1.013.169,2.027.591,1.267.76a1.689,1.689,0,0,1-.845.084" transform="translate(-108.75 -44.01)" fill="#ff97a6"/>
        <path id="Path_5930" data-name="Path 5930" d="M702.851,283.865l-.422-.169a12,12,0,0,0-2.365.084c-.676.169-2.365,1.436-2.365,1.858s.929,0,.929,0-1.013.422-.929.929,1.689-.084,1.689-.084-.422.676,0,.591l1.689-.591.929-.507a9.8,9.8,0,0,0,1.267-1.267l-.507-.676" transform="translate(-108.451 -44.094)" fill="#ff97a6"/>
        <path id="Path_5931" data-name="Path 5931" d="M724.839,263.677s-11.4-11.739-13.175-19.678c-.253-1.351.169-3.885-.591-4.307s-4.138,2.365-4.392,3.209-.338,6.165,3.632,11.233S718,264.944,718,264.944s6.588-.76,6.841-1.267" transform="translate(-109.832 -37.251)" fill="#9fc0e2"/>
        <path id="Path_5932" data-name="Path 5932" d="M725.055,235.877c1.52,1.267,3.125,5.659,2.28,11.233s-2.449,14.7-7.263,18.411-2.111-6.925-2.111-6.925l3.294-12.5s2.111-11.655,3.716-10.219" transform="translate(-111.483 -36.646)" fill="#d5eaf5"/>
        <path id="Path_5933" data-name="Path 5933" d="M721.134,262.134c1.182,4.307-9.544,20.776-16.047,19.256-2.449-.591-2.787-2.2-2.787-2.2l13.766-18.242s3.8-3.716,5.152,1.182" transform="translate(-109.167 -40.353)" fill="#d5eaf5"/>
        <path id="Path_5934" data-name="Path 5934" d="M707.3,234.8s4.054,3.209,4.223,3.8.084,1.858-1.267,1.351S706.2,235.9,706.2,235.9Z" transform="translate(-109.773 -36.498)" fill="#ff97a6"/>
        <path id="Path_5935" data-name="Path 5935" d="M706.6,234s4.054,3.209,4.223,3.8-.084,1.858-1.351,1.351-3.969-4.138-3.969-4.138Z" transform="translate(-109.664 -36.373)" fill="#c95d77"/>
        <path id="Path_5936" data-name="Path 5936" d="M701.8,232.947c.338-2.2,4.392-3.632,5.236-3.547s1.52,1.182,1.943,1.942,1.6,4.392-.676,6.081c-4.307,3.209-6.5-4.561-6.5-4.561" transform="translate(-109.089 -35.658)" fill="#ff97a6"/>
        <path id="Path_5937" data-name="Path 5937" d="M713.2,232.153s-6.165,2.618-10.557-1.436c0,0,.929,3.885-1.774,6.165,0,0-3.04-4.561.422-8.446s11.824,1.1,11.908,3.716" transform="translate(-108.753 -35.286)" fill="#f1c40f"/>
        <path id="Path_5938" data-name="Path 5938" d="M723.092,409.442l.676-.169,34.627-24.07a1.183,1.183,0,1,0-1.351-1.942l-34.627,24.07a1.182,1.182,0,0,0,.676,2.111" transform="translate(-112.223 -59.542)" fill="#1d1d1b"/>
        <path id="Path_5939" data-name="Path 5939" d="M723.592,438.442l.676-.169,34.627-24.07a1.183,1.183,0,1,0-1.351-1.942l-34.627,24.07a1.182,1.182,0,0,0,.676,2.111" transform="translate(-112.301 -64.05)" fill="#1d1d1b"/>
        <path id="Path_5940" data-name="Path 5940" d="M757.976,409.865a1.182,1.182,0,0,0,.676-2.111l-35.894-24.492a1.183,1.183,0,1,0-1.351,1.943L757.3,409.7l.676.169" transform="translate(-112.058 -59.542)" fill="#3b3b3b"/>
        <path id="Path_5941" data-name="Path 5941" d="M758.054,438.442a1.182,1.182,0,0,0,.676-2.111l-35.471-24.07a1.183,1.183,0,0,0-1.351,1.943l35.472,24.07.676.169" transform="translate(-112.135 -64.05)" fill="#3b3b3b"/>
        <path id="Path_5942" data-name="Path 5942" d="M723.992,467.942l.676-.169,34.627-24.07a1.183,1.183,0,1,0-1.351-1.943l-34.627,24.07a1.182,1.182,0,0,0,.676,2.111" transform="translate(-112.363 -68.635)" fill="#1d1d1b"/>
        <path id="Path_5943" data-name="Path 5943" d="M724.492,496.942l.676-.169,34.627-24.07a1.183,1.183,0,1,0-1.351-1.943l-34.627,24.07a1.182,1.182,0,0,0,.676,2.111" transform="translate(-112.441 -73.143)" fill="#1d1d1b"/>
        <path id="Path_5944" data-name="Path 5944" d="M758.776,468.365a1.182,1.182,0,0,0,.676-2.111l-35.894-24.492a1.183,1.183,0,1,0-1.351,1.942L758.1,468.2l.676.169" transform="translate(-112.182 -68.635)" fill="#3b3b3b"/>
        <path id="Path_5945" data-name="Path 5945" d="M758.854,496.942a1.182,1.182,0,0,0,.676-2.111l-35.471-24.07a1.183,1.183,0,1,0-1.351,1.942l35.471,24.07.676.169" transform="translate(-112.26 -73.143)" fill="#3b3b3b"/>
        <path id="Path_5946" data-name="Path 5946" d="M725.592,526.442l.676-.169,34.627-24.07a1.183,1.183,0,0,0-1.351-1.943l-34.627,24.07a1.182,1.182,0,0,0,.676,2.111" transform="translate(-112.612 -77.728)" fill="#1d1d1b"/>
        <path id="Path_5947" data-name="Path 5947" d="M726.092,555.442l.676-.169,34.627-24.07a1.183,1.183,0,0,0-1.351-1.942l-34.627,24.07a1.182,1.182,0,0,0,.676,2.111" transform="translate(-112.69 -82.236)" fill="#1d1d1b"/>
        <path id="Path_5948" data-name="Path 5948" d="M760.476,526.865a1.182,1.182,0,0,0,.676-2.111l-35.894-24.492a1.183,1.183,0,0,0-1.351,1.942L759.8,526.7l.676.169" transform="translate(-112.446 -77.728)" fill="#3b3b3b"/>
        <path id="Path_5949" data-name="Path 5949" d="M760.554,555.442a1.182,1.182,0,0,0,.676-2.111l-35.471-24.07a1.183,1.183,0,0,0-1.351,1.942l35.471,24.07.676.169" transform="translate(-112.524 -82.236)" fill="#3b3b3b"/>
        <path id="Path_5950" data-name="Path 5950" d="M726.292,584.442l.676-.169,34.627-24.07a1.183,1.183,0,0,0-1.351-1.943l-34.627,24.07a1.182,1.182,0,0,0,.676,2.111" transform="translate(-112.721 -86.744)" fill="#1d1d1b"/>
        <path id="Path_5951" data-name="Path 5951" d="M726.792,613.442l.676-.169,34.627-24.07a1.183,1.183,0,1,0-1.351-1.942l-34.627,24.07a1.182,1.182,0,0,0,.676,2.111" transform="translate(-112.798 -91.252)" fill="#1d1d1b"/>
        <path id="Path_5952" data-name="Path 5952" d="M761.176,584.865a1.182,1.182,0,0,0,.676-2.111l-35.894-24.492a1.183,1.183,0,1,0-1.351,1.943L760.5,584.7l.676.169" transform="translate(-112.555 -86.744)" fill="#3b3b3b"/>
        <path id="Path_5953" data-name="Path 5953" d="M761.254,613.442a1.182,1.182,0,0,0,.676-2.111l-35.471-24.07a1.183,1.183,0,1,0-1.351,1.943l35.471,24.07.676.169" transform="translate(-112.633 -91.252)" fill="#3b3b3b"/>
        <path id="Path_5954" data-name="Path 5954" d="M727.292,641.542l.676-.169,34.627-24.07a1.183,1.183,0,1,0-1.351-1.942l-34.627,24.07a1.182,1.182,0,0,0,.676,2.111" transform="translate(-112.876 -95.62)" fill="#1d1d1b"/>
        <path id="Path_5955" data-name="Path 5955" d="M761.754,641.542a1.182,1.182,0,0,0,.676-2.111l-35.471-24.07a1.183,1.183,0,1,0-1.351,1.943l35.471,24.07.676.169" transform="translate(-112.711 -95.62)" fill="#3b3b3b"/>
        <path id="Path_5956" data-name="Path 5956" d="M710.1,325.49a5.49,5.49,0,0,1,5.49-5.49h46.789a5.49,5.49,0,0,1,5.49,5.49v48.815H710.1Zm56.585,0a4.392,4.392,0,0,0-4.392-4.307h-46.62a4.392,4.392,0,0,0-4.392,4.308v47.632h55.4Z" transform="translate(-110.379 -49.741)" fill="#3b3b3b"/>
        <rect id="Rectangle_3346" data-name="Rectangle 3346" width="1.182" height="49.457" transform="translate(638.486 270.597)" fill="#3b3b3b"/>
        <rect id="Rectangle_3347" data-name="Rectangle 3347" width="1.182" height="49.457" transform="translate(649.212 270.597)" fill="#3b3b3b"/>
        <rect id="Rectangle_3348" data-name="Rectangle 3348" width="1.182" height="49.457" transform="translate(627.676 270.597)" fill="#3b3b3b"/>
        <rect id="Rectangle_3349" data-name="Rectangle 3349" width="1.182" height="49.457" transform="translate(606.14 270.597)" fill="#3b3b3b"/>
        <rect id="Rectangle_3350" data-name="Rectangle 3350" width="1.182" height="48.081" transform="translate(616.866 271.272)" fill="#3b3b3b"/>
        <rect id="Rectangle_3351" data-name="Rectangle 3351" width="57.937" height="9.991" transform="translate(599.721 314.682)" fill="#3b3b3b"/>
        <path id="Path_5957" data-name="Path 5957" d="M736.786,667.918l.591-.169,27.11-15.54a1.182,1.182,0,0,0-1.182-2.027l-27.11,15.54a1.182,1.182,0,0,0,.591,2.2" transform="translate(-114.346 -101.051)" fill="#1d1d1b"/>
        <path id="Path_5958" data-name="Path 5958" d="M754.023,667.825a1.182,1.182,0,0,0,.591-2.2L727,649.582a1.182,1.182,0,0,0-1.182,2.027l27.617,16.047.591.169" transform="translate(-112.749 -100.957)" fill="#1d1d1b"/>
        <rect id="Rectangle_3352" data-name="Rectangle 3352" width="44.255" height="1.892" transform="translate(608.842 565.685)" fill="#1d1d1b"/>
        <path id="Path_5959" data-name="Path 5959" d="M776.2,653l-4.054,15.2H769.7V653Z" transform="translate(-119.643 -101.503)" fill="#1d1d1b"/>
        <path id="Path_5960" data-name="Path 5960" d="M763.7,669.648a7.348,7.348,0,1,0,7.348-7.348,7.348,7.348,0,0,0-7.348,7.348" transform="translate(-118.711 -102.949)" fill="#3b3b3b"/>
        <path id="Path_5961" data-name="Path 5961" d="M769.7,670.58a2.28,2.28,0,1,0,2.28-2.28,2.28,2.28,0,0,0-2.28,2.28" transform="translate(-119.643 -103.882)" fill="#fff"/>
        <path id="Path_5962" data-name="Path 5962" d="M715.1,652.5l4.054,15.118H721.6V652.5Z" transform="translate(-111.156 -101.426)" fill="#1d1d1b"/>
        <path id="Path_5963" data-name="Path 5963" d="M726.1,669.048a7.348,7.348,0,1,1-7.348-7.348,7.348,7.348,0,0,1,7.348,7.348" transform="translate(-110.581 -102.856)" fill="#3b3b3b"/>
        <path id="Path_5964" data-name="Path 5964" d="M721.961,669.98a2.28,2.28,0,1,1-2.28-2.28,2.28,2.28,0,0,1,2.28,2.28" transform="translate(-111.514 -103.788)" fill="#fff"/>
        <rect id="Rectangle_3353" data-name="Rectangle 3353" width="58.106" height="7.348" transform="translate(600.903 544.74)" fill="#3b3b3b"/>
        <path id="Path_5965" data-name="Path 5965" d="M268.143,74.869V70.9a18.074,18.074,0,0,0-16.976,11.993H246.1v3.969h4.138a17.059,17.059,0,0,0,0,3.969H246.1V94.8h5.067a18.074,18.074,0,0,0,16.976,11.993v-3.969A14.02,14.02,0,0,1,255.475,94.8h12.668V90.916H254.292a12.584,12.584,0,0,1,0-3.969h13.851V82.893H255.475a14.02,14.02,0,0,1,12.668-8.023" transform="translate(-38.254 -11.021)" fill="#d5eaf5"/>
        <g id="Group_4688" data-name="Group 4688" transform="translate(710.189 296.356)" opacity="0.5">
          <g id="Group_4687" data-name="Group 4687" clip-path="url(#clip-path-9)">
            <path id="Path_5966" data-name="Path 5966" d="M862.943,354.969V351a18.074,18.074,0,0,0-16.976,11.993H840.9v3.969h4.138a17.051,17.051,0,0,0,0,3.969H840.9V374.9h5.067a18.074,18.074,0,0,0,16.976,12.077v-3.969a14.02,14.02,0,0,1-12.668-8.023h12.668v-3.969H849.008a12.579,12.579,0,0,1,0-3.969h13.935v-3.969H850.275a14.02,14.02,0,0,1,12.668-8.023" transform="translate(-840.9 -350.916)" fill="#d5eaf5"/>
          </g>
        </g>
        <path id="Path_5967" data-name="Path 5967" d="M895.273,90.086a64.186,64.186,0,1,0-64.186,64.186,64.186,64.186,0,0,0,64.186-64.186" transform="translate(-119.208 -4.026)" fill="#f1c40f"/>
        <path id="Path_5968" data-name="Path 5968" d="M809.216,191.675h0a16.553,16.553,0,1,0,20.523,11.064,16.553,16.553,0,0,0-20.523-11.064" transform="translate(-123.941 -29.688)" fill="#f1c40f"/>
        <path id="Path_5969" data-name="Path 5969" d="M765.41,215.531h0a9.037,9.037,0,1,0,11.233,6.081,9.037,9.037,0,0,0-11.233-6.081" transform="translate(-117.971 -33.444)" fill="#f1c40f"/>
        <path id="Path_5970" data-name="Path 5970" d="M877.02,89.342A30.826,30.826,0,0,0,846.278,58.6H842.9V92.8h34.2Z" transform="translate(-131.022 -9.109)" fill="#fff"/>
        <path id="Path_5971" data-name="Path 5971" d="M829.663,97.473V66.9h-.422A30.742,30.742,0,1,0,852.8,120.952l.253-.169Z" transform="translate(-124.71 -10.399)" fill="#fff"/>
        <path id="Path_5972" data-name="Path 5972" d="M849.2,107.184l24.154,24.154,2.449-2.449a30.573,30.573,0,0,0,9.037-21.79Z" transform="translate(-132.001 -16.648)" fill="#fff"/>
        <g id="Group_4690" data-name="Group 4690" transform="translate(218.91 65.96)" opacity="0.5">
          <g id="Group_4689" data-name="Group 4689" clip-path="url(#clip-path-10)">
            <path id="Path_5973" data-name="Path 5973" d="M357.919,126.512h-.507a.507.507,0,0,0,.084-.338c.084-4.561-3.294-8.53-7.094-8.361-.169-3.378-.76-7.432-3.463-9.206a4.138,4.138,0,0,0-5.49.338c-.253-4.476-.845-9.037-3.209-12.668s-5.743-4.645-9.206-3.294c-7.6,2.871-8.868,13.091-10.219,21.452-.76-4.054-3.209-7.6-6.588-8.952s-8.361.253-10.895,3.969c-.507-2.7-1.943-5.236-4.392-5.659a4.138,4.138,0,0,0-4.054,2.2c-.422-6,.169-12.162-1.6-17.82-1.351-4.307-3.969-8.614-7.854-9.712s-8.108,1.774-10.726,5.49a36.992,36.992,0,0,0-5.827,15.118,42.65,42.65,0,0,0,.845,17.82c-4.9-2.2-10.219,3.547-8.108,9.8a.294.294,0,0,0,.169.507c6.334.507,12.753.169,19.087.169h57.346c7.179,0,14.442.338,21.621-.169.338,0,.338-.676,0-.676" transform="translate(-259.19 -78.119)" fill="#d5eaf5"/>
          </g>
        </g>
        <path id="Path_5974" data-name="Path 5974" d="M627.694,83.218a10.3,10.3,0,0,0-9.544,2.871c-.507-8.277-8.361-14.949-17.736-13.935s-15.709,9.037-18.918,17.06a5,5,0,0,0-7.179-4.645c1.52-6.25-3.547-12.246-10.3-13.513s-14.7,2.7-18.665,8.53a26.772,26.772,0,0,0-4.138,11.908,9.459,9.459,0,0,0-9.121-.929,7.685,7.685,0,0,0-4.645,7.854.169.169,0,0,0,.169.169h0l-1.013.169v.084a51.1,51.1,0,0,0,7.432.253h23.986c10.641,0,21.367.169,32.009-.253q22.887.169,45.775-.76c.591,0,.929-.422.845-.76a.591.591,0,0,0,.422-.422c.422-6-2.534-12.415-9.459-13.851" transform="translate(-81.856 -11.008)" fill="#d5eaf5"/>
      </g>
    </g>
  </g>
</svg>
